<svg width="800" height="600" viewBox="0 0 800 600" xmlns="http://www.w3.org/2000/svg">
  <rect width="800" height="600" fill="#f0f0f0"/>
  
  <!-- Building -->
  <rect x="100" y="150" width="600" height="350" fill="#e0e0e0" stroke="#333" stroke-width="2"/>
  
  <!-- Windows -->
  <g fill="#a0d8ef" stroke="#333" stroke-width="1">
    <rect x="150" y="200" width="80" height="100"/>
    <rect x="250" y="200" width="80" height="100"/>
    <rect x="350" y="200" width="80" height="100"/>
    <rect x="450" y="200" width="80" height="100"/>
    <rect x="550" y="200" width="80" height="100"/>
    
    <rect x="150" y="350" width="80" height="100"/>
    <rect x="250" y="350" width="80" height="100"/>
    <rect x="350" y="350" width="80" height="100"/>
    <rect x="450" y="350" width="80" height="100"/>
    <rect x="550" y="350" width="80" height="100"/>
  </g>
  
  <!-- Door -->
  <rect x="350" y="450" width="100" height="50" fill="#8b4513" stroke="#333" stroke-width="2"/>
  <circle cx="435" cy="475" r="5" fill="#ffcc00"/>
  
  <!-- Company Name -->
  <rect x="300" y="100" width="200" height="50" fill="#6366f1" rx="5" ry="5"/>
  <text x="400" y="135" font-family="Arial" font-size="24" fill="white" text-anchor="middle">ThinkBuild</text>
  
  <!-- Trees -->
  <g fill="#228b22">
    <circle cx="80" cy="450" r="30"/>
    <circle cx="720" cy="450" r="30"/>
  </g>
  <g fill="#8b4513">
    <rect x="75" y="450" width="10" height="50"/>
    <rect x="715" y="450" width="10" height="50"/>
  </g>
  
  <!-- Sky elements -->
  <circle cx="80" cy="80" r="30" fill="#ffcc00"/>
  <g fill="white">
    <circle cx="200" cy="100" r="25"/>
    <circle cx="220" cy="90" r="25"/>
    <circle cx="240" cy="100" r="25"/>
    
    <circle cx="600" cy="120" r="20"/>
    <circle cx="620" cy="110" r="20"/>
    <circle cx="640" cy="120" r="20"/>
  </g>
</svg> 